<svg width="14" height="14" viewBox="0 0 14 14" fill="none" xmlns="http://www.w3.org/2000/svg">
<g id="Group">
<path id="Vector" d="M3.43729 13.4844V4.8403H0.566665V13.4844H3.43759H3.43729ZM2.00258 3.66029C3.00341 3.66029 3.6265 2.99652 3.6265 2.167C3.60776 1.31858 3.00341 0.67334 2.02161 0.67334C1.03913 0.67334 0.397461 1.31858 0.397461 2.16693C0.397461 2.99645 1.02032 3.66022 1.98377 3.66022H2.00235L2.00258 3.66029ZM5.02622 13.4844H7.89661V8.65767C7.89661 8.39966 7.91535 8.14098 7.99118 7.9567C8.1986 7.44031 8.67092 6.90577 9.46411 6.90577C10.5026 6.90577 10.9182 7.69839 10.9182 8.86055V13.4844H13.7886V8.52814C13.7886 5.87315 12.3726 4.63764 10.484 4.63764C8.93559 4.63764 8.25555 5.50384 7.87773 6.0938H7.89684V4.8406H5.02636C5.06383 5.65152 5.02614 13.4847 5.02614 13.4847L5.02622 13.4844Z" fill="white"/>
</g>
</svg>
