<svg width="18" height="14" viewBox="0 0 18 14" fill="none" xmlns="http://www.w3.org/2000/svg">
<g id="Capa 2">
<g id="ELEMENTS">
<path id="Vector" d="M17.0603 1.93385C16.5319 2.16145 15.9764 2.31993 15.4076 2.40539C15.6735 2.35975 16.0648 1.88062 16.2206 1.68668C16.4573 1.39415 16.6376 1.06019 16.7525 0.701788C16.7525 0.675169 16.7791 0.637143 16.7525 0.618129C16.7391 0.610807 16.7241 0.60697 16.7088 0.60697C16.6936 0.60697 16.6785 0.610807 16.6651 0.618129C16.0474 0.952925 15.39 1.20845 14.7085 1.37866C14.6847 1.38593 14.6595 1.38658 14.6354 1.38055C14.6113 1.37452 14.5893 1.36204 14.5717 1.34444C14.5187 1.28121 14.4616 1.22151 14.4007 1.16571C14.1228 0.916429 13.8074 0.712401 13.4661 0.561089C13.0055 0.371936 12.5079 0.290017 12.011 0.321521C11.5288 0.351998 11.0581 0.481437 10.628 0.701788C10.2046 0.934102 9.83238 1.24971 9.53385 1.62964C9.21983 2.02069 8.99313 2.47451 8.86898 2.96058C8.7666 3.42292 8.75499 3.90078 8.83478 4.36756C8.83478 4.44742 8.83478 4.45883 8.7664 4.44742C6.0575 4.04814 3.83491 3.08606 2.01885 1.02121C1.93906 0.929948 1.89727 0.929948 1.83268 1.02121C1.04243 2.22286 1.42616 4.12419 2.41397 5.06345C2.54695 5.18894 2.68372 5.31063 2.8281 5.42471C2.37519 5.39252 1.93334 5.26968 1.52874 5.06345C1.45275 5.01402 1.41096 5.04064 1.40716 5.1319C1.39639 5.25843 1.39639 5.38564 1.40716 5.51217C1.48644 6.11854 1.72519 6.69296 2.09901 7.17669C2.47283 7.66041 2.96831 8.03609 3.53477 8.2653C3.67285 8.3245 3.81674 8.36911 3.96409 8.3984C3.54481 8.48102 3.11478 8.49386 2.69132 8.43642C2.60014 8.41741 2.56595 8.46684 2.60014 8.55431C3.15864 10.0754 4.37061 10.5393 5.25965 10.7979C5.38122 10.8169 5.5028 10.8169 5.63958 10.8473C5.63958 10.8473 5.63958 10.8473 5.61678 10.8701C5.35463 11.3493 4.29463 11.6725 3.80832 11.8398C2.92068 12.1589 1.97429 12.2809 1.03483 12.1973C0.886658 12.1744 0.852464 12.1783 0.814471 12.1973C0.776478 12.2163 0.814471 12.2581 0.856264 12.2961C1.04623 12.4216 1.23619 12.5319 1.43376 12.6384C2.0219 12.9595 2.64369 13.2145 3.28781 13.3989C6.62359 14.3192 10.3773 13.6423 12.881 11.1515C14.8491 9.19696 15.5405 6.50086 15.5405 3.80097C15.5405 3.69829 15.6659 3.63745 15.7381 3.58421C16.236 3.19592 16.675 2.73735 17.0413 2.22286C17.1047 2.14616 17.1372 2.04852 17.1324 1.94906C17.1324 1.89202 17.1324 1.90343 17.0603 1.93385Z" fill="white"/>
</g>
</g>
</svg>
